<svg xmlns="http://www.w3.org/2000/svg" viewBox="0 0 1440 320"><path fill="rgba(255, 0, 0, 0.8)" fill-opacity="1" d="M0,224L30,229.3C60,235,120,245,180,224C240,203,300,149,360,149.3C420,149,480,203,540,224C600,245,660,235,720,234.7C780,235,840,245,900,261.3C960,277,1020,299,1080,304C1140,309,1200,299,1260,288C1320,277,1380,267,1410,261.3L1440,256L1440,320L1410,320C1380,320,1320,320,1260,320C1200,320,1140,320,1080,320C1020,320,960,320,900,320C840,320,780,320,720,320C660,320,600,320,540,320C480,320,420,320,360,320C300,320,240,320,180,320C120,320,60,320,30,320L0,320Z"></path></svg>